<svg width="231" height="57" viewBox="0 0 231 57" fill="none" xmlns="http://www.w3.org/2000/svg">
<path d="M123.351 46.0524V44.0883H115.269V55.7983H117.475V50.8223H123.23V48.8577H117.475V46.0524H123.351Z" fill="#F25C19"/>
<path d="M128.608 55.7991H130.814V44.0884H128.608V55.7991Z" fill="#F25C19"/>
<path d="M135.743 46.0525H139.234V55.7991H141.44V46.0525H144.93V44.0884H135.743V46.0525Z" fill="#F25C19"/>
<path d="M157.844 44.0883V52.069L152.091 44.0883H149.878V55.7983H152.084V47.5953L157.958 55.7983H160.05V44.0883H157.844Z" fill="#F25C19"/>
<path d="M166.069 55.7991H174.151V53.8348H168.275V50.8225H174.029V48.8579H168.275V46.0525H174.151V44.0884H166.069V55.7991Z" fill="#F25C19"/>
<path d="M184.031 48.6889C182.739 48.3738 181.518 48.0716 181.536 47.239C181.536 46.4239 182.266 45.8969 183.397 45.8969C184.716 45.8973 185.899 46.3796 186.741 47.2574L188.013 45.6055C186.881 44.4825 185.392 43.9159 183.569 43.9154C181.083 43.9154 179.278 45.3716 179.278 47.3772C179.279 49.9025 181.607 50.4669 183.469 50.9291C184.827 51.2811 186 51.5851 186 52.544C186 53.2269 185.418 54.0244 183.777 54.0244C181.856 54.0037 180.739 53.0435 180.122 52.3822L178.888 54.0899C181.052 56.74 188.169 57.0897 188.241 52.3542C188.241 49.7652 185.917 49.1686 184.031 48.6889Z" fill="#F25C19"/>
<path d="M197.868 48.6841C196.576 48.369 195.356 48.0668 195.373 47.2342C195.373 46.4189 196.104 45.8921 197.234 45.8921C198.553 45.8923 199.737 46.3748 200.578 47.2526L201.85 45.6006C200.718 44.4775 199.229 43.9111 197.407 43.9106C194.92 43.9106 193.116 45.3666 193.116 47.3725C193.117 49.8977 195.444 50.4621 197.307 50.9243C198.665 51.2763 199.838 51.5803 199.838 52.5392C199.838 53.2221 199.255 54.0196 197.614 54.0196C195.693 53.9983 194.577 53.0382 193.959 52.3774L192.726 54.0845C194.89 56.7353 202.007 57.0849 202.078 52.3494C202.078 49.7604 199.754 49.1638 197.868 48.6841Z" fill="#F25C19"/>
<path d="M113.339 26.62C114.132 21.8215 121.11 21.6291 121.557 26.62H113.339ZM124.821 24.0668C123.285 21.1635 120.238 19.4402 116.987 19.4402C111.977 19.4402 108.156 23.4541 108.156 28.4054C108.156 33.3569 112.361 37.2939 117.37 37.2939C120.251 37.2939 122.762 35.987 124.382 33.9388L120.755 31.4263C119.461 33.0881 116.965 33.6921 115.169 32.749C113.886 32.075 113.205 30.9244 113.126 29.6519H125.787C126.031 27.5073 125.642 25.6188 124.821 24.0668Z" fill="#F25C19"/>
<path d="M96.9714 33.2371C94.4231 33.2371 92.7985 31.071 92.7985 28.3993C92.7985 25.7275 94.2696 23.5615 96.9714 23.5615C99.6576 23.5615 101.144 25.7275 101.144 28.3993C101.144 31.071 99.6447 33.2371 96.9714 33.2371ZM101.104 19.8818V21.8597C99.8571 20.5675 98.1638 19.7859 96.125 19.7859C91.6563 19.7859 88.0109 23.4335 87.8957 28.5688C87.7856 33.4871 91.4771 37.3133 95.9458 37.3133C97.927 37.3133 99.612 36.5495 100.884 35.2783C100.884 35.2848 100.885 35.2911 100.886 35.2976C101.257 39.3036 99.0365 40.468 95.5749 40.468C94.7295 40.468 93.8891 40.3559 93.1049 40.1426V44.2747C93.9872 44.4234 94.9114 44.4995 95.8564 44.4995C101.334 44.4995 105.711 42.6054 105.711 36.256V19.8818H101.104Z" fill="#F25C19"/>
<path d="M78.7838 19.5935C76.6625 19.5935 74.9043 20.4498 73.775 21.7813V19.8814H69.1658V36.833H73.9842V26.838C73.9842 24.912 74.7601 23.2956 77.1325 23.3883C78.9114 23.4578 80.3388 24.912 80.3388 26.838L80.3687 36.833H85.1766V26.9654C85.1766 22.1085 82.3449 19.5935 78.7838 19.5935Z" fill="#F25C19"/>
<path d="M49.6993 19.5301C47.5859 19.5328 46.2534 20.1797 44.9338 21.9229V19.8814H40.3242V36.833H45.1429V27.2533C45.0587 24.5398 46.9003 22.9812 49.6993 23.7278V19.5301Z" fill="#F25C19"/>
<path d="M57.5777 34.1824C55.5315 34.1824 54.2142 33.2302 54.2142 31.7842C54.2142 30.4089 55.5974 29.3871 57.5984 29.3871C59.5814 29.3871 60.9922 30.4114 60.9922 31.7425C60.9922 33.0734 59.6252 34.1824 57.5777 34.1824ZM56.4954 19.6897C54.7538 19.6897 53.1426 19.7727 51.7728 20.0124V23.6453C52.691 23.4853 53.982 23.3309 55.1449 23.3309C60.0003 23.3309 60.9826 24.7784 60.9826 26.9655L60.9862 27.7648C59.7971 26.8239 58.0287 26.3756 55.772 26.5048C51.6258 26.7426 49.176 29.4479 49.4649 32.4172C49.7695 35.5533 53.0163 37.4303 56.7446 37.0891C58.3748 36.9401 59.7902 36.2898 60.8328 35.3584V36.8331H65.5757V26.5912C65.5757 23.3311 63.7327 19.6897 56.4954 19.6897Z" fill="#F25C19"/>
<path d="M131.603 32.3791V21.6766H135.757L136.058 19.8815H131.603V14.5905L129.146 15.5925V19.8815H127.224L126.923 21.6766H129.146V32.0336C129.184 35.3549 131.004 37.0058 133.676 37.0442C134.504 37.056 135.304 37.0285 136.07 36.9682V35.0477C135.611 35.1152 135.188 35.1501 134.844 35.1501C133.089 35.1501 131.603 34.028 131.603 32.3791Z" fill="#F25C19"/>
<path d="M140.667 36.833V27.008C140.61 24.0933 142.792 21.6002 146.03 21.6415C149.452 21.6751 151.159 23.9733 151.159 27.0444V36.833H153.686V27.1617C153.686 22.8379 151.344 19.5551 146.647 19.5551C144.233 19.5551 142.032 20.8164 140.667 22.7339V13.185L138.21 14.187V36.833H140.667Z" fill="#F25C19"/>
<path d="M185.393 35.2164C181.355 35.2164 178.736 32.2403 178.736 28.2505C178.736 24.1344 181.716 21.4324 185.393 21.4324C189.069 21.4324 192.049 24.0606 192.049 28.2505C192.049 32.314 189.438 35.2164 185.393 35.2164ZM185.393 19.3632C180.372 19.3632 176.301 22.8764 176.301 28.2284C176.301 33.4158 179.878 37.2854 185.393 37.2854C190.917 37.2854 194.485 33.512 194.485 28.2284C194.485 22.7804 190.414 19.3632 185.393 19.3632Z" fill="#F25C19"/>
<path d="M205.286 19.44C202.872 19.44 201.413 20.3935 200.183 22.3133V19.8814H197.775V36.833H200.233V27.008C200.233 26.4156 200.29 25.2261 200.471 24.6616C201.313 22.1634 203.71 21.5128 205.785 21.7772V19.4677C205.62 19.4569 205.457 19.44 205.286 19.44Z" fill="#F25C19"/>
<path d="M220.688 19.8814V29.6722C220.688 32.3387 219.425 34.99 215.478 34.99C211.228 34.99 210.268 32.0796 210.268 29.413V19.8814H207.781V29.3266C207.781 33.8574 209.562 37.0619 215.011 37.0619C217.279 37.0619 219.328 35.9216 220.673 34.1598V35.4211C220.814 40.0162 217.013 42.0455 211.573 41.2235V43.3278C218.589 44.2574 223.32 41.4211 223.15 35.7482V19.8814H220.688Z" fill="#F25C19"/>
<path d="M25.212 36.9073C20.9136 36.9073 17.429 33.0192 17.429 28.2231C17.429 23.4271 20.9136 19.539 25.212 19.539C29.5104 19.539 32.9948 23.4271 32.9948 28.2231C32.9948 33.0192 29.5104 36.9073 25.212 36.9073ZM39.3818 38.8375C36.2016 39.3031 34.5946 36.6533 35.6419 34.3555C37.3533 30.6265 37.3839 25.8534 35.6748 22.1192C34.8912 20.2476 36.1953 17.0998 39.3792 17.6009C41.085 17.8488 42.4082 16.2497 42.4082 14.0371C42.4082 11.8275 41.0808 9.69098 39.375 9.2482C37.5839 8.78516 36.0346 10.3114 36.0346 12.7814C36.0346 16.9702 33.7093 18.6431 31.8368 17.0433C28.547 14.1217 23.375 13.4432 19.4374 15.3479C17.2838 16.1369 13.2255 13.4592 13.2586 8.09957C13.2586 4.9702 10.5812 1.78002 7.07116 0.870972C3.31375 -0.101196 0.0401351 1.9293 0.0390552 5.47334C0.0401351 9.02014 3.31375 12.3651 7.07116 12.9105C12.5194 13.7184 15.6383 17.2855 13.9947 20.2041C11.0708 24.5185 10.9623 31.5482 13.791 35.953C15.2844 38.7394 12.4345 42.7232 7.05946 43.511C3.30061 44.0617 0.00107987 47.4129 0 50.9583C0 54.5039 3.29953 56.5232 7.05872 55.5506C10.5679 54.6415 13.2469 51.4113 13.2469 48.2815C13.2512 43.572 16.1983 39.6958 19.5756 41.1526C23.4894 42.9549 28.6066 42.2755 31.8602 39.4066C33.3882 38.2076 36.015 39.4818 36.0148 43.6834C36.0148 46.0939 37.577 47.6575 39.3691 47.1926C41.0742 46.7495 42.4022 44.6142 42.4022 42.4025C42.4022 40.1908 41.0871 38.5895 39.3818 38.8375Z" fill="#F25C19"/>
<path d="M227.4 16.6077H227.736C228.128 16.6077 228.445 16.4767 228.445 16.1599C228.445 15.8797 228.239 15.6938 227.792 15.6938C227.606 15.6938 227.476 15.712 227.4 15.7314V16.6077ZM227.383 18.3236H226.673V15.2837C226.953 15.2268 227.344 15.1708 227.848 15.1708C228.426 15.1708 228.688 15.2642 228.911 15.4136C229.079 15.5444 229.21 15.7872 229.21 16.0666C229.21 16.4207 228.949 16.6819 228.575 16.7935V16.8309C228.874 16.9245 229.042 17.1671 229.136 17.5773C229.228 18.0434 229.284 18.2303 229.359 18.3236H228.595C228.501 18.2122 228.445 17.9509 228.352 17.5967C228.296 17.2605 228.109 17.1113 227.717 17.1113H227.383V18.3236ZM227.848 14.2947C226.505 14.2947 225.498 15.3953 225.498 16.7375C225.498 18.0994 226.505 19.1818 227.886 19.1818C229.228 19.2 230.217 18.0994 230.217 16.7375C230.217 15.3953 229.228 14.2947 227.866 14.2947H227.848ZM227.886 13.6791C229.639 13.6791 231 15.0409 231 16.7375C231 18.473 229.639 19.8164 227.866 19.8164C226.113 19.8164 224.715 18.473 224.715 16.7375C224.715 15.0409 226.113 13.6791 227.866 13.6791H227.886Z" fill="#F25C19"/>
<path d="M165.393 21.5329C168.469 21.6486 170.871 23.6252 171.326 27.177C168.824 27.177 162.281 27.177 158.987 27.177C159.572 23.7033 162.238 21.4141 165.393 21.5329ZM170.518 32.6948C169.387 33.9894 167.409 35.1954 165.24 35.1747C161.849 35.1425 158.934 32.8146 158.888 29.0678H173.645C174.106 23.6638 170.116 19.7853 165.269 19.6131C160.344 19.4382 156.361 23.1241 156.361 28.4761C156.361 33.6636 159.872 37.3069 165.285 37.3069C168.386 37.3069 170.852 36.0449 172.399 33.9976L170.518 32.6948Z" fill="#F25C19"/>
</svg>
